<?xml version="1.0" encoding="utf-8"?>
<!-- Generator: Adobe Illustrator 16.0.1, SVG Export Plug-In . SVG Version: 6.00 Build 0)  -->
<!DOCTYPE svg PUBLIC "-//W3C//DTD SVG 1.1//EN" "http://www.w3.org/Graphics/SVG/1.1/DTD/svg11.dtd">
<svg version="1.1" id="lola_x5F_logo_xA0_Image_1_" xmlns="http://www.w3.org/2000/svg" xmlns:xlink="http://www.w3.org/1999/xlink"
	 x="0px" y="0px" width="460.333px" height="339px" viewBox="10.5 43.501 460.333 339"
	 enable-background="new 10.5 43.501 460.333 339" xml:space="preserve">
<path fill="#5D8780" d="M376.991,333.909c-8.202,6.28-17.015,11.637-26.069,16.576c-29.031,15.838-60.07,24.194-93.165,24.678
	c-2.286,0.033-5.124,0.931-6.646-1.996c0.004-0.002,0.007-0.005,0.011-0.007c4.331-1.785,7.894-4.662,11.196-7.904
	c9.744-7.308,16.707-13.609,25.057-22.512c0.693-0.74,2.886-2.428,3.318-4.257c-0.959-0.906-3.439,2.006-4.063,2.707
	c-8.155,9.184-17.817,16.05-27.104,23.067c0,0,0,0,0,0.002c-2.842,1.519-4.801,4.625-8.359,4.857
	c4.396-6.658,6.258-14.262,7.934-21.885c9.603-43.65,3.397-85.734-13.414-126.521c-2.588-6.274-2.201-11.26,0.674-16.777
	c14.076-27.018,31.923-51.055,55.455-70.659c8.601-7.163,17.856-13.328,27.619-18.757c3.269-1.817,5.473-1.656,7.141,2.543
	c3.135,7.894,6.621,15.645,8.617,23.934c3.017,12.525,3.729,25.318,4.354,38.126c0.062,1.282-0.71,3.722,2.271,3.382
	c2.354-0.269,2.341-1.842,2.271-3.619c-0.849-21.854-2.372-43.601-11.96-63.785c-1.865-3.928-0.86-5.5,3.053-6.771
	c24.504-7.954,48.958-9.104,73.462-0.072c1.365,0.504,3.179,2.246,4.175-0.286c0.812-2.071,0.243-3.973-2.188-4.783
	c-3.946-1.317-7.839-2.845-11.854-3.898c-22.697-5.958-44.929-3.588-66.688,4.377c-3.655,1.337-5.252,0.577-6.971-2.636
	c-4.182-7.811-9.607-14.774-15.426-21.441c-13.319-15.263-30.206-25.269-49.201-31.158c-17.304-5.364-33.813-0.545-49.44,7.602
	c-7.724,2.761-14.342,7.247-20.492,12.464c0-0.002,0.001-0.005,0.001-0.007c-1.724,1.113-3.848,2.919-6.125,5.134
	c-2.119,1.681-4.159,3.432-5.493,5.804c-2.416,2.745-4.801,5.701-6.903,8.588c-1.276,1.303-2.033,2.428-3.01,4.07
	c-0.365,0.609-0.729,1.219-1.095,1.829c-0.728,0.92-1.211,1.764-1.993,2.939c-1.61,2.037-2.559,3.918-3.789,6.311
	c-0.233,0.431-0.639,0.993-0.992,1.515c0,0-0.001,0-0.001-0.001c-0.031,0.044-0.066,0.101-0.097,0.146
	c-0.018,0.027-0.036,0.054-0.054,0.081c-1.562,2.323-4.108,7.401-5.417,10.869c-0.708,0.908-1.206,2.253-2.76,1.396
	c-2.821-2.692-6.229-4.419-9.768-5.93c-0.148,0.125-0.324,0.191-0.509,0.235c0.17-0.079,0.339-0.157,0.509-0.235
	c-0.66-0.362-1.319-0.725-1.979-1.087c-0.34-0.207-0.682-0.412-1.022-0.617c0,0,0,0,0-0.001c-0.322-0.288-1.127-0.757-2.233-1.317
	c-2.694-1.54-5.47-2.889-8.506-3.629c-3.74-1.355-7.307-2.304-8.573-1.78c1.295,1.132,3.298,1.599,6.098,2.619
	c3.855,2.401,8.145,3.878,12.284,5.673c0.669,0.343,1.339,0.686,2.008,1.028c0,0,0,0,0.001,0c3.279,2.078,6.558,4.156,9.837,6.233
	c0,0,0,0,0,0.001c2.813,1.444,2.016,3.614,1.163,5.794c-11.962,31.682-16.131,64.416-13.21,98.099
	c2.896,33.392,11.601,65.086,27.516,94.717c1.902,3.543,3.901,5.431,7.963,3.752c-0.07-0.459-0.03-0.832-0.182-1.094
	c-17.592-30.221-28.14-62.617-30.635-97.61c-1.616-22.673-1.191-45.224,3.077-67.581c1.804-9.445,4.329-18.752,6.525-28.123
	c0.061-0.166,0.121-0.33,0.176-0.493c1.643-4.536,4.105-3.22,7.025-0.667c4.438,3.88,9.048,7.564,13.585,11.331
	c21.366,20.916,37.838,45.338,51.703,71.683c2.141,4.068,2.382,7.521,0.63,11.728c-3.512,8.432-6.363,17.118-8.291,26.075
	c-2.457,7.89-4.657,18.729-5.692,27.465c0,0,0,0.001,0.001,0.001c-0.035,0.216-0.07,0.446-0.103,0.709
	c-0.082,1.209-0.163,2.418-0.245,3.627c-0.344,3.842-0.691,4.704-0.809,7.348c-0.062,0.894-0.125,1.785-0.188,2.679
	c-0.483,6.41-0.869,9.524-0.795,14.317c-0.005,0.683-0.01,1.363-0.016,2.045c-0.082,6.097-0.595,12.214,0.835,18.24
	c0.001,0.004,0.001,0.008,0.002,0.013c0.055,1.245,0.11,2.493,0.166,3.739c0.095,2.149,0.455,3.588,0.797,6.283
	c0.936,11.239,3.127,22.204,7.081,32.79c0.001,0.004,0.002,0.007,0.003,0.011c0.57,1.347,1.143,2.663,0.263,4.392
	c-3.989-3.033-8.226-5.529-11.783-9.15c-5.357-5.451-10.941-10.691-15.791-16.605c-1.893-2.309-3.812-1.887-5.644-0.625
	c-2.406,1.662,0.052,2.961,0.892,3.934c9.678,11.207,19.435,22.355,33.188,28.89c-5.247,2.435-15.433,0.929-21.08,1.125
	c-0.864-0.065-1.729-0.133-2.595-0.199c-2.031-0.522-4.318-0.567-5.388-0.803c-4.34-0.674-8.68-1.349-13.021-2.021
	c-2.799-0.654-5.599-1.312-8.399-1.967c-1.287-0.478-3.018-0.98-4.421-1.299c-2.895-1.396-5.922-2.359-9.114-2.794
	c-8.974-3.431-17.947-6.856-26.921-10.287c-11.357-6.961-22.714-13.922-34.071-20.883c-7.093-5.763-14.539-11.144-21.213-17.354
	c-21.284-19.812-38.993-42.361-51.118-68.998c-1.517-3.332-2.895-6.729-4.479-10.025c-0.903-1.881-2.861-2.779-4.57-1.926
	c-1.796,0.896-0.413,2.668,0.114,3.961c3.208,7.871,6.971,15.477,11.239,22.824c17.349,29.865,40.366,54.428,69.043,73.684
	c0.128,0.115,0.262,0.217,0.399,0.295c10.636,8.13,22.398,14.348,34.406,20.143c8.033,3.976,16.283,7.39,24.97,9.676
	c2.278,1.254,4.677,2.121,7.2,2.599c1.196,0.562,5.845,1.897,8.902,2.53c2.573,0.96,5.223,1.635,8.027,1.736
	c6.232,1.656,12.536,2.879,19.005,3.076c0.584,0.033,1.169,0.068,1.753,0.104c3.896,0.338,4.368,0.413,7.265,0.601
	c1.991,0.059,3.956,0.315,5.947,0.372c5.792,0.795,11.637,1.354,17.297-0.43c3.036-0.959,5.873-0.961,8.801-0.099
	c3.396,1,6.853,1.244,10.373,1.209c41.666-0.405,78.854-14.326,112.95-37.485c4.861-3.304,9.92-6.423,14.432-10.843
	C382.278,331.454,379.589,331.921,376.991,333.909z M227.789,184.758c-12.1-19.301-26.231-36.874-43.734-51.591
	c-3.928-4.36-8.582-7.911-13.526-10.928c-2.879-1.755-4.124-3.627-3.479-6.694c1.397-2.72,2.435-5.95,3.857-7.521
	c0.582-0.817,0.841-1.143,0.956-1.353c0.519-0.663,1.117-1.423,1.376-1.857c0.002,0,0.003,0.001,0.005,0.002
	c1.913-2.562,2.441-3.608,3.193-4.974c0.331-0.481,0.83-1.34,1.313-1.933c0.863-1.232,1.2-1.58,2.02-3.025
	c0.628-1.012,1.175-1.845,1.64-2.616c0.819-0.983,1.071-1.418,1.435-1.932c0.596-0.931,1.763-2.565,2.276-3.46
	c1.558-2.011,3.426-4.327,5.395-6.539c3.739-2.98,5.419-6.188,8.929-8.979c0.001,0,0.001,0,0.002,0
	c8.263-4.812,16.3-10.024,24.999-14.058h0.001c0.887-0.389,1.772-0.777,2.659-1.167c2.765-0.911,5.663-1.439,8.242-2.88
	c8.649-1.601,17.325-4.058,26.142-1.756c30.395,7.935,53.201,25.869,69.122,52.843c1.633,2.767,0.656,3.755-1.652,4.881
	c-3.286,1.603-6.645,3.137-9.7,5.119c-29.408,19.073-51.982,44.463-68.861,75.039c-3.319,6.012-6.362,12.176-9.879,18.938
	C236.289,199.796,232.385,192.085,227.789,184.758z M247.25,365.994c-3.044,5.715-8.739,6.066-13.077,0.999
	c-0.589-0.688-1.045-1.467-1.486-2.254c-1.021-4.163-1.652-6.359-2.023-7.774c-1.533-5.845-2.607-11.804-4.4-17.582
	c-0.347-2.389-0.857-3.4-0.946-5.16c-0.066-0.761-0.185-1.511-0.38-2.25c-0.675-1.974-0.476-4.033-0.609-6.058
	c-0.069-0.799-0.19-1.592-0.402-2.369c-0.783-3.313-0.422-6.663-0.311-10.006c0.032-5.334,0.01-10.67-0.006-16.01
	c-0.08-3.4-0.312-6.034,0.141-10.356c0.542-3.849,0.916-7.537,1.001-11.408c1.593-11.061,3.339-16.797,4.928-22.824
	c0.003,0.002,0.006,0.005,0.01,0.007c1.593-4.922,2.021-6.058,2.661-8.233c2.203-7.479,5.304-17.269,8.525-24.97
	c3.825,8.662,6.84,17.622,9.25,26.231c7.168,25.6,11.698,54.658,8.375,81.104C256.779,340.764,253.9,353.506,247.25,365.994z"/>
<path fill="#5D8780" d="M17.242,204.192c3.257-0.328,1.802-3.06,1.721-4.709c-1.312-26.619,4.401-51.222,20.545-72.912
	c0.713-0.958,2.342-1.979,0.663-3.298c-1.343-1.056-3.033-1.665-4.554-0.282c-0.973,0.885-1.742,2.008-2.53,3.077
	c-13.944,18.919-19.8,40.387-19.82,63.625c0,3.326-0.014,6.654,0.004,9.982C13.286,202.325,14.179,204.499,17.242,204.192z"/>
<path fill="#5D8780" d="M72.338,102.193c0.972,0.137,2.04,0.256,2.958-0.001c13.786-3.848,27.73-4.358,41.82-2.143
	c4.24,1.023,8.48,2.047,12.72,3.069c-4.752-3.236-7.103-4.49-12.538-5.068c-1.616-0.582-2.377-0.382-5.199-0.928
	c-7.558-1.708-15.22-1.333-22.841-0.877c-5.792,0.347-11.535,1.351-17.146,2.935c-0.797,0.226-1.801,0.476-1.852,1.408
	C70.192,101.88,71.4,102.061,72.338,102.193z"/>
<path fill="#5D8780" d="M355.365,199.704c-0.286-2.038-1.266-3.522-3.484-3.446c-2.318,0.08-3.744,1.448-3.708,3.819
	c0.038,2.545,1.926,3.465,4.062,3.412C354.435,203.434,355.228,201.739,355.365,199.704z"/>
<path fill="#5D8780" d="M394.785,318.219c-2.415,0.1-3.658,1.194-3.787,3.354c-0.146,2.457,1.202,3.68,3.54,3.785
	c2.19,0.098,3.456-1.177,3.55-3.257C398.192,319.776,396.804,318.501,394.785,318.219z"/>
<path fill="#5D8780" d="M55.507,114.395c2.116,0.018,3.465-1.129,3.55-3.282c0.094-2.38-1.341-3.555-3.44-3.87
	c-2.283,0.128-3.569,1.208-3.646,3.37C51.885,112.979,53.097,114.376,55.507,114.395z"/>
<path fill="#5D8780" d="M191.582,331.516c-0.362-1.946-1.218-3.477-3.446-3.52c-2.377-0.047-3.843,1.295-3.841,3.596
	c0.001,2.344,1.615,3.596,3.903,3.551C190.407,335.098,191.219,333.465,191.582,331.516z"/>
<path fill="#5D8780" d="M438.597,123.133c2.439,0.234,3.852-1.295,3.905-3.5c0.048-1.917-1.105-3.434-3.723-3.682
	c-1.814,0.227-3.5,1.2-3.555,3.583C435.179,121.624,436.539,122.936,438.597,123.133z"/>
<path fill="#5D8780" d="M19.69,217.317c-2.018,0.36-3.449,1.479-3.362,3.596c0.076,1.851,1.446,3.154,3.266,3.11
	c2.021-0.047,3.472-1.389,3.37-3.524C22.876,218.655,21.564,217.598,19.69,217.317z"/>
<path fill="#5D8780" d="M301.924,323.814c-1.336,1.992-2.424,3.266-4.062,5.199l0,0c-2.346,2.269-4.705,5.223-5.795,8.568
	c3.543-1.98,4.935-4.65,7.15-7.238c1.236-1.11,2.104-2.238,3.084-3.631c2.574-2.898,5.151-6.377,7-9.463h0.001
	c3.973-4.615,6.575-10.109,9.765-15.229c2.372-2.547,3.95-5.565,5.23-8.764c0.001,0,0.001,0,0.002,0
	c1.992-4.003,3.985-8.005,5.979-12.009c0.938-1.737,1.971-3.435,2.795-5.226c7.611-16.526,12.874-33.817,16.774-51.545
	c0.785-1.879,1.335-3.986,0.729-4.522c-0.399-0.354-1.322,0.906-1.905,1.976c-1.377,1.479-2.892,2.818-3.299,5.057
	c-3.274,17.99-9.413,35.09-16.372,51.924c-2.57,3.744-4.568,7.77-5.955,12.096c-2.659,4.282-3.923,7.737-6.405,11.367
	c0.001,0.001,0.004,0.001,0.007,0.002c-3.707,3.928-5.652,9.061-8.726,13.422C305.573,319.057,304.062,321.182,301.924,323.814z"/>
<path fill="#5D8780" d="M468.227,173.578c-0.025-0.446-0.08-0.799-0.165-0.991c0.159-0.435,0.073-0.935-0.059-1.448
	c-0.442-1.312,0.032-1.729-0.956-4.79c-2.103-11.932-5.734-23.318-12.106-33.713c-0.551-0.897-0.813-2.331-4.229-1.473
	c5.634,11.828,11.977,23.228,14.414,35.981c0.465,2.76,0.465,2.76,0.902,5.132c-0.064,0.303-0.021,0.589,0.136,0.858h-0.001
	c0.156,1.975,0.249,3.408,0.372,5.043c-0.027,1.737,0.182,3.48,0.454,5.226c0.291,3.131-0.196,5.258-0.465,9.389
	c-0.201,2.347-0.586,3.515-0.399,4.38c-0.667,3.002-1.359,6.002-1.019,9.098c-0.003-0.004-0.005-0.012-0.006-0.016
	c-0.683,2.74-0.823,5.02-1.185,6.542c-1.616,5.443-3.232,10.886-4.848,16.328c-5.057,12.127-10.589,24.004-17.628,35.146
	c-10.258,16.229-22.234,31.063-35.68,44.752c-0.96,0.977-3.619,1.84-1.885,3.74c1.647,1.807,3.866,1.563,5.515-0.615
	c0.497-0.656,1.154-1.191,1.721-1.803c5.878-6.341,11.668-12.761,16.865-19.681c13.648-18.166,25.303-37.426,32.271-59.233
	c2.371-5.205,4.039-10.619,4.852-16.287c0.486-2.063,0.978-2.912,1.028-4.094c1.396-6.636,1.122-7.871,1.906-11.947
	c0.071-1.207,0.142-2.416,0.212-3.625C469.533,188.916,469.396,180.328,468.227,173.578z"/>
</svg>
