<?xml version="1.0" encoding="utf-8"?>
<!-- Generator: Adobe Illustrator 16.0.1, SVG Export Plug-In . SVG Version: 6.00 Build 0)  -->
<!DOCTYPE svg PUBLIC "-//W3C//DTD SVG 1.1//EN" "http://www.w3.org/Graphics/SVG/1.1/DTD/svg11.dtd">
<svg version="1.1" id="Layer_1" xmlns="http://www.w3.org/2000/svg" xmlns:xlink="http://www.w3.org/1999/xlink" x="0px" y="0px"
	 width="116.652px" height="143.169px" viewBox="0 -13.831 116.652 143.169" enable-background="new 0 -13.831 116.652 143.169"
	 xml:space="preserve">
<path fill="#5D8780" d="M114.537,30.731c0,0.211-0.312,3.351-0.941,9.42c-1.049,6.908-1.781,14.027-2.197,21.352
	c-0.629,10.887-1.153,21.877-1.569,32.971c-0.841,12.144-2.724,22.293-5.652,30.457c-10.676-0.211-21.721-0.94-33.127-2.199
	c-11.412-1.256-17.741-1.883-18.997-1.883c-10.048,0-19.625,1.207-28.731,3.611c-9.105,2.404-13.452,3.611-13.03,3.611
	c-4.607,0-6.908-4.396-6.908-13.189c0-3.139,0.103-5.441,0.313-6.908l2.198-70.334c0-14.022,2.198-24.178,6.594-30.458
	c23.864,2.723,39.354,4.082,46.473,4.082c8.581,0,17.896-1.045,27.946-3.14c7.741-1.673,15.385-3.346,22.922-5.024
	C112.969,10.007,114.537,19.221,114.537,30.731z M93.186,97.614c-3.979-9.209-5.965-21.559-5.965-37.052
	c0-7.114,0.521-16.22,1.568-27.318c-1.256-1.256-2.824-1.884-4.709-1.884c-2.935,0-7.486,0.942-13.659,2.826
	c-6.177,1.884-10.416,2.826-12.717,2.826c-3.352,0-8.43-0.942-15.229-2.826c-6.805-1.884-11.569-2.826-14.287-2.826h-5.966
	c-1.05,3.14-1.57,5.235-1.57,6.28c0,1.467,1.202,5.132,3.611,10.99c2.404,5.863,3.611,10.887,3.611,15.072
	c0,4.189-2.307,17.064-6.908,38.623h7.222c3.141,0,8.268-1.148,15.387-3.455c7.113-2.303,11.823-3.454,14.13-3.454
	c3.14,0,8.267,0.94,15.386,2.826c7.113,1.884,12.35,2.825,15.699,2.825C90.674,101.065,92.137,99.919,93.186,97.614z M73.404,66.213
	c0,4.396-1.78,8.218-5.338,11.461c-3.562,3.248-7.747,4.867-12.56,4.867c-9.842,0-14.758-5.966-14.758-17.898
	c0-9.837,5.127-14.758,15.386-14.758c4.602,0,8.635,1.624,12.089,4.867C71.677,58,73.404,61.817,73.404,66.213z"/>
</svg>
